<mxfile modified="2020-05-31T06:02:21.078Z" host="" agent="5.0 (Windows NT 10.0; Win64; x64) AppleWebKit/537.36 (KHTML, like Gecko) Code/1.45.1 Chrome/78.0.3904.130 Electron/7.2.4 Safari/537.36" etag="emO73IOvxv2U6I9F0KCb" version="13.1.3">
    <diagram id="Ht1M8jgEwFfnCIfOTk4-" name="Page-1">
        <mxGraphModel dx="405" dy="358" grid="1" gridSize="10" guides="1" tooltips="1" connect="1" arrows="1" fold="1" page="1" pageScale="1" pageWidth="1169" pageHeight="827" math="0" shadow="0">
            <root>
                <mxCell id="0"/>
                <mxCell id="1" parent="0"/>
                <mxCell id="UEzPUAAOIrF-is8g5C7q-109" value="ブラウザ" style="outlineConnect=0;gradientColor=none;fontColor=#545B64;strokeColor=none;fillColor=#879196;dashed=0;verticalLabelPosition=bottom;verticalAlign=top;align=center;html=1;fontSize=12;fontStyle=0;aspect=fixed;shape=mxgraph.aws4.illustration_desktop;pointerEvents=1;labelBackgroundColor=#ffffff;" parent="1" vertex="1">
                    <mxGeometry x="190" y="316.75" width="92.86" height="84.5" as="geometry"/>
                </mxCell>
                <mxCell id="UEzPUAAOIrF-is8g5C7q-113" value="Lambda" style="outlineConnect=0;fontColor=#232F3E;gradientColor=#F78E04;gradientDirection=north;fillColor=#D05C17;strokeColor=#ffffff;dashed=0;verticalLabelPosition=bottom;verticalAlign=top;align=center;html=1;fontSize=12;fontStyle=0;aspect=fixed;shape=mxgraph.aws4.resourceIcon;resIcon=mxgraph.aws4.lambda;labelBackgroundColor=#ffffff;spacingTop=3;" parent="1" vertex="1">
                    <mxGeometry x="520" y="320" width="78" height="78" as="geometry"/>
                </mxCell>
                <mxCell id="UEzPUAAOIrF-is8g5C7q-114" value="Amazon API&lt;br&gt;Gateway&lt;br&gt;" style="outlineConnect=0;fontColor=#232F3E;gradientColor=#945DF2;gradientDirection=north;fillColor=#5A30B5;strokeColor=#ffffff;dashed=0;verticalLabelPosition=bottom;verticalAlign=top;align=center;html=1;fontSize=12;fontStyle=0;aspect=fixed;shape=mxgraph.aws4.resourceIcon;resIcon=mxgraph.aws4.api_gateway;labelBackgroundColor=#ffffff;" parent="1" vertex="1">
                    <mxGeometry x="360" y="320" width="78" height="78" as="geometry"/>
                </mxCell>
                <mxCell id="COBx8BgLZBBujnrb4q7P-5" value="" style="outlineConnect=0;fontColor=#232F3E;gradientColor=#4D72F3;gradientDirection=north;fillColor=#3334B9;strokeColor=#ffffff;dashed=0;verticalLabelPosition=bottom;verticalAlign=top;align=center;html=1;fontSize=12;fontStyle=0;aspect=fixed;shape=mxgraph.aws4.resourceIcon;resIcon=mxgraph.aws4.simple_email_service;" parent="1" vertex="1">
                    <mxGeometry x="680" y="320" width="78" height="78" as="geometry"/>
                </mxCell>
                <mxCell id="COBx8BgLZBBujnrb4q7P-6" value="メールアドレス" style="outlineConnect=0;gradientColor=none;fontColor=#545B64;strokeColor=none;fillColor=#879196;dashed=0;verticalLabelPosition=bottom;verticalAlign=top;align=center;html=1;fontSize=12;fontStyle=0;aspect=fixed;shape=mxgraph.aws4.illustration_notification;pointerEvents=1;labelBackgroundColor=#ffffff;" parent="1" vertex="1">
                    <mxGeometry x="840" y="318.5" width="100" height="81" as="geometry"/>
                </mxCell>
                <mxCell id="COBx8BgLZBBujnrb4q7P-9" value="SES" style="text;html=1;strokeColor=none;fillColor=none;align=center;verticalAlign=middle;whiteSpace=wrap;rounded=0;" parent="1" vertex="1">
                    <mxGeometry x="699" y="401.25" width="40" height="20" as="geometry"/>
                </mxCell>
                <mxCell id="COBx8BgLZBBujnrb4q7P-17" value="" style="endArrow=classic;html=1;" parent="1" source="UEzPUAAOIrF-is8g5C7q-109" edge="1">
                    <mxGeometry width="50" height="50" relative="1" as="geometry">
                        <mxPoint x="300" y="439" as="sourcePoint"/>
                        <mxPoint x="360" y="359" as="targetPoint"/>
                    </mxGeometry>
                </mxCell>
                <mxCell id="COBx8BgLZBBujnrb4q7P-18" value="" style="endArrow=classic;html=1;" parent="1" source="UEzPUAAOIrF-is8g5C7q-114" target="UEzPUAAOIrF-is8g5C7q-113" edge="1">
                    <mxGeometry width="50" height="50" relative="1" as="geometry">
                        <mxPoint x="442.86" y="358.5" as="sourcePoint"/>
                        <mxPoint x="520.0000000000001" y="358.5" as="targetPoint"/>
                    </mxGeometry>
                </mxCell>
                <mxCell id="COBx8BgLZBBujnrb4q7P-19" value="" style="endArrow=classic;html=1;" parent="1" source="UEzPUAAOIrF-is8g5C7q-113" target="COBx8BgLZBBujnrb4q7P-5" edge="1">
                    <mxGeometry width="50" height="50" relative="1" as="geometry">
                        <mxPoint x="602.86" y="358.5" as="sourcePoint"/>
                        <mxPoint x="680.0000000000001" y="358.5" as="targetPoint"/>
                    </mxGeometry>
                </mxCell>
                <mxCell id="COBx8BgLZBBujnrb4q7P-20" value="" style="endArrow=classic;html=1;" parent="1" source="COBx8BgLZBBujnrb4q7P-5" target="COBx8BgLZBBujnrb4q7P-6" edge="1">
                    <mxGeometry width="50" height="50" relative="1" as="geometry">
                        <mxPoint x="758" y="358.5" as="sourcePoint"/>
                        <mxPoint x="835.1400000000001" y="358.5" as="targetPoint"/>
                    </mxGeometry>
                </mxCell>
            </root>
        </mxGraphModel>
    </diagram>
</mxfile>